# Hi-Rez Valence 3D OBJ File: Broken wall
mtllib Broken wall.mtl
o Box
v -0.2 -0.00719434 1.5
vn -0.55506086 -0.70410925 0.44287428
vt 0.0 0.0
v 0.0 -0.00719434 1.5
vn 0.0 -0.84647876 0.5324226
vt 0.5 0.0
v 0.2 -0.00719434 1.5
vn 0.59250605 -0.6818944 0.4289015
vt 1.0 0.0
v -0.2 0.18150118 1.5
vn -0.7992288 0.08629984 0.5947989
vt 0.0 0.33333334
v 0.0 0.18150118 1.5
vn 0.0 0.19755141 0.9802925
vt 0.5 0.33333334
v 0.2 0.18150118 1.5
vn 0.8160528 0.11418025 0.566587
vt 1.0 0.33333334
v -0.2 0.394574 1.4190345
vn -0.6978411 0.1927441 0.68983144
vt 0.0 0.6666667
v 0.0 0.394574 1.4190345
vn 0.0 0.2966946 0.9549725
vt 0.5 0.6666667
v 0.2 0.394574 1.4190345
vn 0.71939135 0.20608553 0.6633286
vt 1.0 0.6666667
v -0.2 0.78099614 1.3137466
vn -0.50094086 0.35240856 0.790485
vt 0.0 1.0
v 0.0 0.78099614 1.3137466
vn 0.0 0.40718207 0.913347
vt 0.5 1.0
v 0.2 0.78099614 1.3137466
vn 0.52540314 0.34645227 0.77712435
vt 1.0 1.0
v 0.2 -0.00719434 -1.5
vn 0.74443746 -0.4466625 -0.49629176
vt 0.0 0.0
v 0.0 -0.00719434 -1.5
vn 0.0 -0.6689647 -0.74329424
vt 0.5 0.0
v -0.2 -0.00719434 -1.5
vn -0.73482484 -0.45372993 -0.5041445
vt 1.0 0.0
v 0.2 0.326139 -1.5
vn 0.83153903 0.03504487 -0.5543597
vt 0.0 0.33333334
v 0.0 0.326139 -1.5
vn 0.011071949 0.0066433055 -0.9999167
vt 0.5 0.33333334
v -0.2 0.326139 -1.5
vn -0.82459027 0.0 -0.5657303
vt 1.0 0.33333334
v 0.15322901 0.7136743 -1.4824408
vn 0.82399106 0.08217211 -0.56061256
vt 0.0 0.6666667
v 0.0 0.65947235 -1.5
vn 0.023110123 0.00460937 -0.99972224
vt 0.5 0.6666667
v -0.2 0.65947235 -1.5
vn -0.80600274 0.0076422086 -0.59186256
vt 1.0 0.6666667
v 0.07949127 0.93034726 -1.5
vn 0.77397156 0.43158257 -0.46336213
vt 0.0 1.0
v 0.0 0.99280566 -1.5
vn 0.039004397 0.7403519 -0.671087
vt 0.5 1.0
v -0.2 0.99280566 -1.5
vn -0.77261555 0.4635695 -0.43378398
vt 1.0 1.0
v 0.2 -0.00719434 1.2
vn 0.72404253 -0.6897554 0.0
vt 0.1 0.0
v 0.2 -0.00719434 0.9
vn 0.8229539 -0.5681082 0.0
vt 0.2 0.0
v 0.2 -0.00719434 0.59999996
vn 0.8651576 -0.50110126 -0.019992512
vt 0.3 0.0
v 0.2 -0.00719434 0.29999995
vn 0.87309915 -0.4875426 -4.0656842e-09
vt 0.4 0.0
v 0.2 -0.00719434 -5.9604645e-08
vn 0.8651576 -0.5011013 0.01999251
vt 0.5 0.0
v 0.2 -0.00719434 -0.30000007
vn 0.8574929 -0.51449573 0.0
vt 0.6 0.0
v 0.2 -0.00719434 -0.6000001
vn 0.8779718 -0.4752795 -0.05722616
vt 0.7 0.0
v 0.2 -0.00719434 -0.9000001
vn 0.9005807 -0.43468884 -4.193656e-09
vt 0.8 0.0
v 0.2 -0.00719434 -1.2
vn 0.87797177 -0.47527957 0.05722617
vt 0.9 0.0
v 0.2 0.15167484 1.2
vn 1.0 -6.622931e-09 0.0
vt 0.1 0.33333334
v 0.2 0.326139 0.9
vn 0.99999994 0.0 0.0
vt 0.2 0.33333334
v 0.2 0.326139 0.59999996
vn 0.99973315 0.0 -0.023102356
vt 0.3 0.33333334
v 0.17226978 0.326139 0.29999995
vn 0.99999994 0.0 -4.6566124e-09
vt 0.4 0.33333334
v 0.2 0.326139 -5.9604645e-08
vn 0.9996719 0.0 0.025614642
vt 0.5 0.33333334
v 0.2 0.326139 -0.30000007
vn 1.0 0.0 0.0
vt 0.6 0.33333334
v 0.2 0.326139 -0.6000001
vn 0.99739856 0.0 -0.072084434
vt 0.7 0.33333334
v 0.12178405 0.326139 -0.9000001
vn 0.99999994 0.0 -6.9849193e-09
vt 0.8 0.33333334
v 0.2 0.326139 -1.2
vn 0.99883497 0.017293703 0.045052726
vt 0.9 0.33333334
v 0.2 0.42953044 1.2
vn 1.0 3.5903593e-16 0.0
vt 0.1 0.6666667
v 0.2 0.65947235 0.9
vn 1.0 0.0 0.0
vt 0.2 0.6666667
v 0.2 0.65947235 0.59999996
vn 0.9998391 -0.01199969 -0.013332995
vt 0.3 0.6666667
v 0.2 0.65947235 0.29999995
vn 0.9997539 -0.022187192 -2.483865e-09
vt 0.4 0.6666667
v 0.2 0.65947235 -5.9604645e-08
vn 0.9998398 -0.011973777 0.013304202
vt 0.5 0.6666667
v 0.2 0.3977778 -0.30000007
vn 0.9997006 0.023361024 -0.007276394
vt 0.6 0.6666667
v 0.2 0.65947235 -0.6000001
vn 0.99971104 0.0071093515 -0.022964979
vt 0.7 0.6666667
v 0.2 0.65947235 -0.9000001
vn 0.99880576 -0.0441497 0.020922326
vt 0.8 0.6666667
v 0.2 0.65947235 -1.2
vn 0.9991523 0.014406909 -0.038564187
vt 0.9 0.6666667
v 0.2 0.8858884 1.2
vn 0.9075421 0.40618393 0.106685765
vt 0.1 1.0
v 0.2 0.7865309 0.9
vn 0.8747255 0.48050037 0.06304465
vt 0.2 1.0
v 0.2 0.9364187 0.59999996
vn 0.85524553 0.51314735 0.072352216
vt 0.3 1.0
v 0.2 0.9557273 0.29999995
vn 0.8574635 0.5144781 0.008278189
vt 0.4 1.0
v 0.2 0.9557273 -5.9604645e-08
vn 0.84814733 0.49799982 -0.18067178
vt 0.5 1.0
v 0.2 0.7529151 -0.30000007
vn 0.86450654 0.49666274 -0.077166304
vt 0.6 1.0
v 0.15322901 0.8499635 -0.5824409
vn 0.8456996 0.49656266 0.1954935
vt 0.7 1.0
v 0.2 0.99280566 -0.9000001
vn 0.85558 0.5133481 0.06675751
vt 0.8 1.0
v 0.2 0.93034726 -1.2
vn 0.8534368 0.50409675 -0.13240917
vt 0.9 1.0
v -0.2 -0.00719434 -1.2
vn -0.85086656 -0.5253818 -1.4858085e-09
vt 0.1 0.0
v -0.2 -0.00719434 -0.9
vn -0.8790133 -0.46986786 0.08099291
vt 0.2 0.0
v -0.2 -0.00719434 -0.59999996
vn -0.91137046 -0.41158715 -2.5463395e-08
vt 0.3 0.0
v -0.2 -0.00719434 -0.29999995
vn -0.88275707 -0.4641596 -0.07277182
vt 0.4 0.0
v -0.2 -0.00719434 5.9604645e-08
vn -0.8574929 -0.51449573 0.0
vt 0.5 0.0
v -0.2 -0.00719434 0.30000007
vn -0.8552609 -0.51315653 0.072105005
vt 0.6 0.0
v -0.098830864 -0.00719434 0.6000001
vn -0.8574929 -0.51449573 0.0
vt 0.7 0.0
v -0.2 -0.00719434 0.9000001
vn -0.81266683 -0.57705975 -0.08108424
vt 0.8 0.0
v -0.2 -0.00719434 1.2
vn -0.6959299 -0.71810967 0.0
vt 0.9 0.0
v -0.21164453 0.326139 -1.2
vn -1.0 0.0 -1.4551914e-09
vt 0.1 0.33333334
v -0.2 0.326139 -0.9
vn -0.99578196 0.0 0.09175206
vt 0.2 0.33333334
v -0.101075634 0.326139 -0.59999996
vn -1.0 0.0 -2.3283063e-08
vt 0.3 0.33333334
v -0.2 0.326139 -0.29999995
vn -0.9966193 0.0 -0.08215828
vt 0.4 0.33333334
v -0.2 0.326139 5.9604645e-08
vn -0.99999994 0.0 0.0
vt 0.5 0.33333334
v -0.2 0.326139 0.30000007
vn -0.99839574 -0.037877563 0.04208618
vt 0.6 0.33333334
v -0.2 0.326139 0.6000001
vn -0.99713373 -0.07565937 0.0
vt 0.7 0.33333334
v -0.2 0.326139 0.9000001
vn -0.9958317 -0.055928063 -0.07205163
vt 0.8 0.33333334
v -0.2 0.11943665 1.2
vn -0.999328 -0.032649305 -0.016663155
vt 0.9 0.33333334
v -0.2 0.65947235 -1.2
vn -0.99995506 0.009481197 -6.3191735e-10
vt 0.1 0.6666667
v -0.2 0.65947235 -0.9
vn -0.99815756 -0.035140492 0.04946346
vt 0.2 0.6666667
v -0.2 0.65947235 -0.59999996
vn -0.9962627 -0.08637529 -1.0842393e-08
vt 0.3 0.6666667
v -0.2 0.65947235 -0.29999995
vn -0.99743813 -0.047853786 -0.053170882
vt 0.4 0.6666667
v -0.2 0.65947235 5.9604645e-08
vn -1.0 0.0 0.0
vt 0.5 0.6666667
v -0.2 0.65947235 0.30000007
vn -1.0 0.0 0.0
vt 0.6 0.6666667
v -0.2 0.65947235 0.6000001
vn -1.0 0.0 0.0
vt 0.7 0.6666667
v -0.2 0.65947235 0.9000001
vn -0.99944484 -1.1559215e-09 -0.033315968
vt 0.8 0.6666667
v -0.23502187 0.41776633 1.2
vn -0.99999994 -1.9966264e-09 -2.129735e-08
vt 0.9 0.6666667
v -0.2 0.8875875 -1.2
vn -0.85749286 0.5144958 0.0
vt 0.1 1.0
v -0.2 0.99280566 -0.9
vn -0.85745144 0.5144709 -0.009831703
vt 0.2 1.0
v -0.2 0.9105199 -0.59999996
vn -0.78975344 0.57395315 0.21648873
vt 0.3 1.0
v -0.2 0.77272075 -0.29999995
vn -0.73542005 0.6776114 0.0
vt 0.4 1.0
v -0.2 0.9105199 5.9604645e-08
vn -0.78975344 0.573953 -0.21648867
vt 0.5 1.0
v -0.2 0.99280566 0.30000007
vn -0.857493 0.51449573 0.0
vt 0.6 1.0
v -0.2 0.9105199 0.6000001
vn -0.857493 0.51449573 0.0
vt 0.7 1.0
v -0.2 0.99280566 0.9000001
vn -0.86866593 0.49407008 0.03625103
vt 0.8 1.0
v -0.2 0.8858884 1.2
vn -0.8766119 0.42836007 0.21922433
vt 0.9 1.0
v 0.0 0.8858884 1.2
vn 0.1717487 0.91865045 0.35578614
vt 0.5 0.1
v 0.0 0.99280566 0.9
vn 0.23330261 0.9654301 0.116252355
vt 0.5 0.2
v 0.0 0.99280566 0.59999996
vn 0.11858309 0.99048585 0.06982774
vt 0.5 0.3
v 0.0 0.99280566 0.29999995
vn 0.0019065501 0.99996585 0.008044956
vt 0.5 0.4
v 0.0 0.99280566 -5.9604645e-08
vn -0.019650841 0.9376832 -0.34693512
vt 0.5 0.5
v 0.0 0.760264 -0.30000007
vn 0.026470728 0.99720925 -0.06980613
vt 0.5 0.6
v 0.0 0.99280566 -0.6000001
vn 0.07836871 0.93049586 0.35782078
vt 0.5 0.7
v 0.0 0.99280566 -0.9000001
vn 0.01136791 0.999636 0.024465557
vt 0.5 0.8
v 0.0 0.99280566 -1.2
vn -0.015569538 0.9988634 -0.045050863
vt 0.5 0.9
v 0.0 -0.00719434 -1.2
vn 0.0 -1.0 0.0
vt 0.5 0.1
v 0.0 -0.00719434 -0.9
vn 0.0 -1.0 0.0
vt 0.5 0.2
v 0.0 -0.00719434 -0.59999996
vn 0.0 -1.0 0.0
vt 0.5 0.3
v 0.0 -0.00719434 -0.29999995
vn 0.0 -1.0 0.0
vt 0.5 0.4
v 0.0 -0.00719434 5.9604645e-08
vn 0.0 -1.0 0.0
vt 0.5 0.5
v 0.0 -0.00719434 0.30000007
vn 0.0 -1.0 0.0
vt 0.5 0.6
v 0.0 -0.00719434 0.6000001
vn 0.0 -1.0 0.0
vt 0.5 0.7
v 0.0 -0.00719434 0.9000001
vn 0.0 -1.0 0.0
vt 0.5 0.8
v 0.0 -0.00719434 1.2
vn 0.0 -1.0 0.0
vt 0.5 0.9
vn 0.0 0.0 1.0
vn 0.0 0.0 1.0
vn 0.0 0.35520956 0.9347867
vn 0.0 0.35520956 0.9347867
vn 0.0 0.26288512 0.9648272
vn 0.0 0.26288512 0.9648272
vn 0.0 0.0 -1.0
vn 0.0 0.0 -1.0
vn 0.04545461 0.027273323 -0.99859405
vn 0.0 0.0 -1.0
vn 0.07444821 -0.021847969 -0.99698555
vn 0.0 0.0 -0.99999994
vn 0.99999994 0.0 0.0
vn 1.0 0.0 0.0
vn 0.99999994 0.0 0.0
vn 0.99807256 0.041515153 -0.04612796
vn 0.99807245 0.04151514 0.04612795
vn 0.99999994 0.0 0.0
vn 1.0 0.0 0.0
vn 0.9849666 0.11556013 -0.12840015
vn 0.98496664 0.11556015 0.12840018
vn 0.99999994 0.0 0.0
vn 1.0 -2.9287634e-08 0.0
vn 1.0 0.0 0.0
vn 0.99999994 0.0 0.0
vn 0.99807256 -0.041515153 -0.046127964
vn 0.99807245 -0.04151514 0.046127956
vn 1.0 0.0 0.0
vn 1.0 0.0 0.0
vn 0.9849666 -0.11556013 -0.12840016
vn 0.98496664 -0.11556015 0.12840019
vn 0.9950681 0.066357374 -0.07373042
vn 1.0 2.8037443e-08 0.0
vn 1.0 0.0 0.0
vn 1.0 0.0 0.0
vn 1.0 0.0 0.0
vn 1.0 0.0 0.0
vn 0.99999994 0.0 0.0
vn 0.99591285 0.08623353 -0.02685966
vn 0.9918223 0.0853774 0.09486381
vn 1.0 0.0 0.0
vn 0.9555983 0.13509491 -0.2618803
vn -0.9996593 -0.017460823 -0.01940094
vn -0.9996593 -0.017460851 0.019400928
vn -0.9762711 0.14486547 0.16096161
vn -0.9762711 0.14486548 -0.16096166
vn -1.0 0.0 0.0
vn -0.99999994 0.0 0.0
vn -0.9752222 -0.14799358 0.16443731
vn -0.9752222 -0.14799358 -0.16443731
vn -1.0 0.0 0.0
vn -1.0 0.0 0.0
vn -0.9996593 0.017460823 -0.01940094
vn -0.9996593 0.017460851 0.01940093
vn -0.9762711 -0.14486547 0.16096164
vn -0.9762711 -0.14486548 -0.16096167
vn -1.0 0.0 0.0
vn -0.99999994 0.0 0.0
vn -1.0 0.0 0.0
vn -1.0 0.0 0.0
vn -0.9935454 -0.055086073 -0.09916147
vn -0.9958207 -0.05688325 0.07145322
vn -0.99999994 0.0 0.0
vn -0.99999994 0.0 0.0
vn -1.0 0.0 0.0
vn -1.0 0.0 0.0
vn -1.0 0.0 0.0
vn -1.0 0.0 0.0
vn -1.0 0.0 0.0
vn -1.0 0.0 0.0
vn -0.99850476 0.043632522 -0.03293034
vn -0.9904649 0.056095377 0.12582712
vn 0.0 0.73514 0.6779153
vn 0.0 0.73514 0.6779153
vn 2.339398e-07 0.9419661 0.33570805
vn 0.45830375 0.88872516 0.011197536
vn -0.19970153 0.97077006 -0.13313428
vn 0.5373031 0.81824374 0.20440792
vn -0.1997013 0.97077006 0.13313428
vn 0.22742271 0.97329235 0.031321444
vn -0.19970146 0.97077006 -0.13313428
vn 0.18228579 0.9832456 0.0
vn -0.1469411 0.8417179 -0.5195375
vn 0.08953573 0.80613273 -0.5849216
vn -0.14694045 0.8417181 0.5195376
vn 0.33175993 0.83219624 0.4442801
vn -0.19970135 0.97077006 0.13313428
vn 0.35418436 0.90487534 0.23612295
vn -0.25081038 0.9534863 -0.16720676
vn 0.15346694 0.9828429 -0.10231129
vn -0.2508101 0.9534864 0.16720681
vn 0.40667936 0.9099122 -0.08168072
vn 0.0 -1.0 0.0
vn 0.0 -1.0 0.0
vn 0.0 -0.99999994 0.0
vn 0.0 -1.0 0.0
vn 0.0 -1.0 0.0
vn 0.0 -1.0 0.0
vn 0.0 -1.0 0.0
vn 0.0 -1.0 0.0
vn 0.0 -1.0 0.0
vn 0.0 -1.0 0.0
vn 0.0 -1.0 0.0
vn 0.0 -1.0 0.0
vn 0.0 -1.0 0.0
vn 0.0 -1.0 0.0
vn 0.0 -1.0 0.0
vn 0.0 -1.0 0.0
vn 0.0 -1.0 0.0
vn 0.0 -1.0 0.0
vn 0.0 -1.0 0.0
vn 0.0 -1.0 0.0
usemtl 816A0602-C089-4EA9-8990-37B9023D6981
g Submesh0
f 83/83/83 84/84/84 93/93/93 92/92/92 
f 64/64/64 109/109/109 110/110/110 65/65/65 
f 106/106/106 33/33/33 32/32/32 107/107/107 
f 62/62/62 63/63/63 72/72/72 71/71/71 
f 20/20/20 21/21/21 24/24/24 23/23/23 
f 67/67/67 112/112/112 113/113/113 68/68/68 
f 39/39/39 40/40/40 49/49/49 48/48/48 
f 34/34/34 35/35/35 44/44/44 43/43/43 
f 61/61/61 62/62/62 71/71/71 70/70/70 
f 44/44/44 45/45/45 54/54/54 53/53/53 
f 11/11/11 12/12/12 52/52/52 97/97/97 
f 1/1/1 2/2/2 5/5/5 4/4/4 
f 32/32/32 33/33/33 42/42/42 41/41/41 
f 19/19/19 20/20/20 23/23/23 22/22/22 
f 10/10/10 11/11/11 97/97/97 96/96/96 
f 107/107/107 32/32/32 31/31/31 108/108/108 
f 79/79/79 80/80/80 89/89/89 88/88/88 
f 85/85/85 86/86/86 95/95/95 94/94/94 
f 84/84/84 85/85/85 94/94/94 93/93/93 
f 3/3/3 25/25/25 34/34/34 6/6/6 
f 90/90/90 103/103/103 104/104/104 89/89/89 
f 65/65/65 66/66/66 75/75/75 74/74/74 
f 17/17/17 18/18/18 21/21/21 20/20/20 
f 41/41/41 42/42/42 51/51/51 50/50/50 
f 71/71/71 72/72/72 81/81/81 80/80/80 
f 104/104/104 59/59/59 60/60/60 105/105/105 
f 14/14/14 13/13/13 33/33/33 106/106/106 
f 77/77/77 78/78/78 87/87/87 86/86/86 
f 114/114/114 25/25/25 3/3/3 2/2/2 
f 62/62/62 107/107/107 108/108/108 63/63/63 
f 76/76/76 77/77/77 86/86/86 85/85/85 
f 66/66/66 111/111/111 112/112/112 67/67/67 
f 97/97/97 52/52/52 53/53/53 98/98/98 
f 48/48/48 49/49/49 58/58/58 57/57/57 
f 112/112/112 27/27/27 26/26/26 113/113/113 
f 7/7/7 8/8/8 11/11/11 10/10/10 
f 70/70/70 71/71/71 80/80/80 79/79/79 
f 16/16/16 17/17/17 20/20/20 19/19/19 
f 38/38/38 39/39/39 48/48/48 47/47/47 
f 46/46/46 47/47/47 56/56/56 55/55/55 
f 15/15/15 61/61/61 70/70/70 18/18/18 
f 31/31/31 32/32/32 41/41/41 40/40/40 
f 68/68/68 69/69/69 78/78/78 77/77/77 
f 88/88/88 105/105/105 23/23/23 24/24/24 
f 26/26/26 27/27/27 36/36/36 35/35/35 
f 36/36/36 37/37/37 46/46/46 45/45/45 
f 51/51/51 19/19/19 22/22/22 60/60/60 
f 80/80/80 81/81/81 90/90/90 89/89/89 
f 73/73/73 74/74/74 83/83/83 82/82/82 
f 42/42/42 16/16/16 19/19/19 51/51/51 
f 50/50/50 51/51/51 60/60/60 59/59/59 
f 75/75/75 76/76/76 85/85/85 84/84/84 
f 96/96/96 97/97/97 98/98/98 95/95/95 
f 100/100/100 55/55/55 56/56/56 101/101/101 
f 99/99/99 54/54/54 55/55/55 100/100/100 
f 9/9/9 43/43/43 52/52/52 12/12/12 
f 47/47/47 48/48/48 57/57/57 56/56/56 
f 63/63/63 108/108/108 109/109/109 64/64/64 
f 45/45/45 46/46/46 55/55/55 54/54/54 
f 65/65/65 110/110/110 111/111/111 66/66/66 
f 113/113/113 26/26/26 25/25/25 114/114/114 
f 61/61/61 106/106/106 107/107/107 62/62/62 
f 63/63/63 64/64/64 73/73/73 72/72/72 
f 110/110/110 29/29/29 28/28/28 111/111/111 
f 15/15/15 14/14/14 106/106/106 61/61/61 
f 109/109/109 30/30/30 29/29/29 110/110/110 
f 21/21/21 79/79/79 88/88/88 24/24/24 
f 35/35/35 36/36/36 45/45/45 44/44/44 
f 49/49/49 50/50/50 59/59/59 58/58/58 
f 101/101/101 56/56/56 57/57/57 102/102/102 
f 111/111/111 28/28/28 27/27/27 112/112/112 
f 28/28/28 29/29/29 38/38/38 37/37/37 
f 6/6/6 34/34/34 43/43/43 9/9/9 
f 64/64/64 65/65/65 74/74/74 73/73/73 
f 14/14/14 15/15/15 18/18/18 17/17/17 
f 98/98/98 53/53/53 54/54/54 99/99/99 
f 81/81/81 82/82/82 91/91/91 90/90/90 
f 25/25/25 26/26/26 35/35/35 34/34/34 
f 78/78/78 4/4/4 7/7/7 87/87/87 
f 103/103/103 58/58/58 59/59/59 104/104/104 
f 82/82/82 83/83/83 92/92/92 91/91/91 
f 40/40/40 41/41/41 50/50/50 49/49/49 
f 105/105/105 60/60/60 22/22/22 23/23/23 
f 94/94/94 99/99/99 100/100/100 93/93/93 
f 2/2/2 3/3/3 6/6/6 5/5/5 
f 18/18/18 70/70/70 79/79/79 21/21/21 
f 89/89/89 104/104/104 105/105/105 88/88/88 
f 29/29/29 30/30/30 39/39/39 38/38/38 
f 30/30/30 31/31/31 40/40/40 39/39/39 
f 93/93/93 100/100/100 101/101/101 92/92/92 
f 37/37/37 38/38/38 47/47/47 46/46/46 
f 66/66/66 67/67/67 76/76/76 75/75/75 
f 8/8/8 9/9/9 12/12/12 11/11/11 
f 69/69/69 1/1/1 4/4/4 78/78/78 
f 95/95/95 98/98/98 99/99/99 94/94/94 
f 4/4/4 5/5/5 8/8/8 7/7/7 
f 33/33/33 13/13/13 16/16/16 42/42/42 
f 72/72/72 73/73/73 82/82/82 81/81/81 
f 13/13/13 14/14/14 17/17/17 16/16/16 
f 67/67/67 68/68/68 77/77/77 76/76/76 
f 43/43/43 44/44/44 53/53/53 52/52/52 
f 68/68/68 113/113/113 114/114/114 69/69/69 
f 86/86/86 87/87/87 96/96/96 95/95/95 
f 108/108/108 31/31/31 30/30/30 109/109/109 
f 5/5/5 6/6/6 9/9/9 8/8/8 
f 102/102/102 57/57/57 58/58/58 103/103/103 
f 92/92/92 101/101/101 102/102/102 91/91/91 
f 74/74/74 75/75/75 84/84/84 83/83/83 
f 27/27/27 28/28/28 37/37/37 36/36/36 
f 91/91/91 102/102/102 103/103/103 90/90/90 
f 87/87/87 7/7/7 10/10/10 96/96/96 
f 69/69/69 114/114/114 2/2/2 1/1/1 
