# Hi-Rez Valence 3D OBJ File: Small House
mtllib Small House.mtl
o Box
v -1.5 0.0026489496 1.5
vn -0.5529555 -0.8133746 0.18072656
vt 0.0 0.0
v 1.5 0.0026489496 1.5
vn 0.5529555 -0.8133746 0.18072657
vt 1.0 0.0
v -1.5 2.0421355 1.5
vn -0.9630792 -0.12825748 0.23670329
vt 0.0 1.0
v 1.5 2.0421355 1.5
vn 0.96344113 -0.112000234 0.24338667
vt 1.0 1.0
v 1.5 0.0026489496 -1.5
vn 0.4900714 -0.7208746 -0.49007124
vt 0.0 0.0
v -1.5 0.0026489496 -1.5
vn -0.4900714 -0.7208746 -0.49007124
vt 1.0 0.0
v 1.5 2.0421355 -1.5
vn 0.77669096 -0.053637274 -0.627594
vt 0.0 1.0
v -1.5 2.0421355 -1.5
vn -0.7766909 -0.05363727 -0.627594
vt 1.0 1.0
v -1.5 2.5839732 0.16025126
vn -0.84071213 0.033318378 0.5404563
vt 0.0 1.0
v 1.5 2.5839732 0.16025126
vn 0.8200928 0.10943796 0.56166816
vt 1.0 1.0
v 1.5 2.913788 0.070943
vn 0.6532464 -0.13604026 0.7448236
vt 0.0 1.0
v -1.5 2.913788 0.070943
vn -0.65324646 -0.1360403 0.7448235
vt 1.0 1.0
v -0.53874236 1.3667797 1.5
vn -0.013711088 -0.16672263 0.98590845
vt 0.0 0.0
v 0.53874236 1.3667797 1.5
vn 0.013710996 -0.16672263 0.98590845
vt 1.0 0.0
v 0.53874236 1.4893457 1.5
vn 0.015609314 0.1898054 0.9816976
vt 1.0 1.0
v -0.53874236 1.4893457 1.5
vn -0.015609341 0.1898054 0.9816976
vt 0.0 1.0
v -0.53874236 1.4214355 1.9018228
vn -0.078418486 0.95354784 0.29085588
vt 0.0 1.0
v -0.53874236 1.3667797 1.9018228
vn -0.08121906 -0.9876021 0.13433327
vt 0.0 0.0
v 0.53874236 1.3667797 1.9018228
vn 0.08127569 -0.9882907 0.12913494
vt 1.0 0.0
v 0.53874236 1.4214355 1.9018228
vn 0.078418486 0.95354784 0.29085588
vt 1.0 1.0
v 1.5 2.6333845 0.18023492
vn 0.0 0.9402416 0.3405079
vt 1.0 1.0
v -1.5 2.6333845 0.18023492
vn -7.324614e-08 0.9402417 0.34050795
vt 0.0 1.0
v -1.5 2.091547 1.5199836
vn -5.6101015e-08 0.927053 0.37493026
vt 0.0 1.0
v 1.5 2.091547 1.5199836
vn 5.6852603e-09 0.927053 0.37493026
vt 1.0 1.0
v 1.6361244 2.6333845 0.18023492
vn 0.3643827 0.8755995 0.31709749
vt 1.0 1.0
v 1.6361244 2.091547 1.5199836
vn 0.36459768 0.8632395 0.34912187
vt 1.0 1.0
v 1.6361244 2.0421355 1.5
vn 0.36459768 -0.86323947 -0.349122
vt 1.0 1.0
v 1.6361244 2.5839732 0.16025126
vn 0.36438274 -0.8498625 -0.3807345
vt 1.0 1.0
v 1.5 2.0066884 1.7298043
vn 4.0868866e-08 0.81642544 0.5774508
vt 1.0 1.0
v -1.5 2.0066886 1.7298043
vn 3.9865203e-08 0.81642544 0.57745075
vt 0.0 1.0
v -1.5 1.957277 1.7098206
vn -3.9865217e-08 -0.9883118 -0.15244572
vt 0.0 1.0
v 1.5 1.9572768 1.7098206
vn -4.0868876e-08 -0.9883118 -0.15244575
vt 1.0 1.0
v 1.6361244 1.9572768 1.7098206
vn 0.35613635 -0.92351216 -0.14245093
vt 1.0 1.0
v 1.6361244 2.0066884 1.7298043
vn 0.35613623 0.7628956 0.53959
vt 1.0 1.0
v -1.7150806 1.957277 1.7098206
vn -0.23448852 -0.96075666 -0.148195
vt 0.0 1.0
v -1.7150806 2.0066886 1.7298043
vn -0.23448852 0.79366285 0.56135046
vt 0.0 1.0
v -1.7150806 2.091547 1.5199836
vn -0.24053684 0.8998349 0.36392203
vt 0.0 1.0
v -1.7150806 2.633384 0.18023492
vn -0.24038294 0.91267216 0.3305233
vt 0.0 1.0
v -1.7150806 2.5839727 0.16025126
vn -0.24038105 -0.885846 -0.39685482
vt 0.0 1.0
v -1.7150806 2.0421355 1.5
vn -0.24053517 -0.89983517 -0.3639223
vt 0.0 1.0
v -1.6136459 2.9689262 0.17031673
vn -0.05414189 -0.87313247 0.484467
vt 1.0 1.0
v 1.6136459 2.9689262 0.17031673
vn 0.054141853 -0.8731324 0.4844671
vt 0.0 1.0
v 1.6136459 1.9869971 -1.5993737
vn 0.102288604 -0.9371945 0.33347178
vt 0.0 1.0
v -1.6136459 1.9869971 -1.5993737
vn -0.102288686 -0.9371945 0.33347166
vt 1.0 1.0
v -1.6136459 2.0127106 -1.6136411
vn -0.009110473 0.8672385 -0.49780956
vt 1.0 1.0
v -1.6136459 2.9946396 0.15604931
vn -0.009111433 0.8743791 -0.4851577
vt 1.0 1.0
v 1.6136459 2.9946396 0.15604931
vn 0.009111429 0.8743791 -0.4851577
vt 0.0 1.0
v 1.6136459 2.0127106 -1.6136411
vn 0.009110469 0.8672385 -0.49780956
vt 0.0 1.0
v 0.284638 1.2113932 1.5
vn 0.07328233 0.039180394 0.99654126
vt 1.0 0.0
v -0.284638 1.2113932 1.5
vn -0.07328234 0.039180398 0.9965413
vt 0.0 0.0
v -0.35323653 0.018325686 1.5
vn -0.080766104 -0.043181587 0.9957973
vt 0.0 0.0
v 0.35323653 0.018325686 1.5
vn 0.0807661 -0.043181583 0.9957973
vt 1.0 0.0
v 0.35323653 0.018325686 1.5653031
vn 0.10169314 -0.054370306 0.993329
vt 1.0 0.0
v 0.284638 1.2113932 1.5653031
vn 0.10169314 0.05437031 0.993329
vt 1.0 0.0
v -0.284638 1.2113932 1.5653031
vn -0.10169314 0.05437031 0.993329
vt 0.0 0.0
v -0.35323653 0.018325686 1.5653031
vn -0.10169314 -0.054370306 0.993329
vt 0.0 0.0
v 1.6136459 3.0898118 0.32757264
vn 0.0090107545 0.9366434 -0.35016856
vt 0.0 1.0
v -1.6136459 3.0898118 0.32757264
vn -0.009010754 0.9366434 -0.35016856
vt 1.0 1.0
v -1.6136459 3.0640984 0.34184006
vn -0.009010748 -0.7927882 0.6094307
vt 1.0 1.0
v 1.6136459 3.0640984 0.34184006
vn 0.009010748 -0.7927882 0.6094307
vt 0.0 1.0
vn 0.0 0.0 1.0
vn 0.0 0.0 -1.0
vn 1.0 0.0 0.0
vn -1.0 0.0 0.0
vn 0.0 0.26137018 0.96523863
vn 0.0 -1.0 0.0
vn 0.0 0.92705303 0.3749301
vn 1.0 0.0 0.0
vn 0.0 0.87441564 -0.48517758
vn -1.0 0.0 0.0
vn 0.0 0.0 1.0
vn -5.735933e-08 0.0 1.0
vn 0.0 0.0 1.0
vn 0.0 0.0 1.0
vn -0.99999994 0.0 0.0
vn 0.0 -1.0 0.0
vn 0.99999994 0.0 0.0
vn 0.0 0.9860174 0.16664219
vn 0.0 0.37493247 -0.92705214
vn -1.0 3.8690865e-07 0.0
vn 0.0 -0.37493068 0.9270529
vn 1.0 0.0 0.0
vn 0.0 0.9270532 0.37492988
vn 0.0 -0.3749309 0.9270528
vn 0.0 -0.9270531 -0.37493
vn 0.0 0.37493214 -0.92705226
vn 4.3891966e-08 0.92705256 0.3749313
vn -1.0 -3.0881125e-07 0.0
vn -4.3891966e-08 -0.92705256 -0.3749313
vn 0.0 -0.92705244 -0.37493166
vn 1.0 0.0 0.0
vn 0.0 0.92705244 0.37493178
vn 0.0 -0.3749306 0.9270529
vn 0.0 0.9270528 0.37493083
vn -1.0658299e-06 0.9270532 0.37492982
vn -8.084604e-07 0.37493223 -0.92705226
vn 1.0546846e-06 -0.92705315 -0.3749299
vn 0.0 -0.9270527 -0.37493098
vn 0.0 -0.8744166 0.48517594
vn -1.0296199e-06 -0.8744154 0.48517796
vn 0.0 -0.8744158 0.48517728
vn 1.0038784e-06 -0.8744156 0.48517755
vn -0.99999994 1.6274637e-06 0.0
vn 0.0 0.48517886 0.8744149
vn 1.0 -8.1373173e-07 0.0
vn 0.0 -0.48518017 -0.8744142
vn 0.0 0.0 1.0
vn -1.2796951e-07 0.0 0.99999994
vn 0.0 0.0 1.0
vn 1.2796951e-07 0.0 0.99999994
vn 0.9983511 0.05740277 0.0
vn 0.0 1.0 0.0
vn -0.9983511 0.05740277 0.0
vn 0.0 -0.99999994 0.0
vn 0.0 0.8744137 -0.4851811
vn -1.0 0.0 0.0
vn 0.0 -0.87441397 0.48518047
vn 1.0 0.0 0.0
usemtl AB60D615-DE7D-43FE-834D-66FD923039FD
g Submesh0
f 38/38/38 37/37/37 23/23/23 22/22/22 
f 12/12/12 9/9/9 10/10/10 11/11/11 
f 54/54/54 53/53/53 52/52/52 49/49/49 
f 55/55/55 54/54/54 49/49/49 50/50/50 
f 57/57/57 60/60/60 42/42/42 47/47/47 
f 25/25/25 28/28/28 10/10/10 21/21/21 
f 6/6/6 5/5/5 2/2/2 1/1/1 
f 34/34/34 33/33/33 27/27/27 26/26/26 
f 48/48/48 45/45/45 46/46/46 47/47/47 
f 42/42/42 41/41/41 12/12/12 11/11/11 
f 56/56/56 55/55/55 50/50/50 51/51/51 
f 49/49/49 52/52/52 2/2/2 14/14/14 
f 35/35/35 40/40/40 3/3/3 31/31/31 
f 43/43/43 42/42/42 11/11/11 7/7/7 
f 34/34/34 29/29/29 32/32/32 33/33/33 
f 51/51/51 50/50/50 13/13/13 1/1/1 
f 46/46/46 45/45/45 44/44/44 41/41/41 
f 59/59/59 58/58/58 46/46/46 41/41/41 
f 36/36/36 35/35/35 31/31/31 30/30/30 
f 17/17/17 20/20/20 15/15/15 16/16/16 
f 48/48/48 47/47/47 42/42/42 43/43/43 
f 13/13/13 16/16/16 3/3/3 1/1/1 
f 33/33/33 32/32/32 4/4/4 27/27/27 
f 24/24/24 21/21/21 22/22/22 23/23/23 
f 50/50/50 49/49/49 14/14/14 13/13/13 
f 9/9/9 12/12/12 8/8/8 3/3/3 
f 45/45/45 48/48/48 43/43/43 44/44/44 
f 28/28/28 27/27/27 4/4/4 10/10/10 
f 11/11/11 10/10/10 4/4/4 7/7/7 
f 28/28/28 25/25/25 26/26/26 27/27/27 
f 39/39/39 40/40/40 37/37/37 38/38/38 
f 31/31/31 32/32/32 29/29/29 30/30/30 
f 56/56/56 53/53/53 54/54/54 55/55/55 
f 41/41/41 44/44/44 8/8/8 12/12/12 
f 18/18/18 17/17/17 16/16/16 13/13/13 
f 52/52/52 51/51/51 1/1/1 2/2/2 
f 20/20/20 17/17/17 18/18/18 19/19/19 
f 16/16/16 15/15/15 4/4/4 3/3/3 
f 29/29/29 34/34/34 26/26/26 24/24/24 
f 6/6/6 1/1/1 3/3/3 8/8/8 
f 5/5/5 6/6/6 8/8/8 7/7/7 
f 26/26/26 25/25/25 21/21/21 24/24/24 
f 39/39/39 38/38/38 22/22/22 9/9/9 
f 19/19/19 18/18/18 13/13/13 14/14/14 
f 60/60/60 57/57/57 58/58/58 59/59/59 
f 58/58/58 57/57/57 47/47/47 46/46/46 
f 40/40/40 35/35/35 36/36/36 37/37/37 
f 60/60/60 59/59/59 41/41/41 42/42/42 
f 30/30/30 29/29/29 24/24/24 23/23/23 
f 44/44/44 43/43/43 7/7/7 8/8/8 
f 37/37/37 36/36/36 30/30/30 23/23/23 
f 20/20/20 19/19/19 14/14/14 15/15/15 
f 15/15/15 14/14/14 2/2/2 4/4/4 
f 22/22/22 21/21/21 10/10/10 9/9/9 
f 2/2/2 5/5/5 7/7/7 4/4/4 
f 32/32/32 31/31/31 3/3/3 4/4/4 
f 53/53/53 56/56/56 51/51/51 52/52/52 
f 40/40/40 39/39/39 9/9/9 3/3/3 
