# Hi-Rez Valence 3D OBJ File: Yurt
mtllib Yurt.mtl
o Cone
v 0.0 1.5 2.0
vn 0.0 0.8073904 0.5900176
vt 0.0 0.0
v 0.7653669 1.5 1.847759
vn 0.22579001 0.8073904 0.5451052
vt 0.0625 0.0
v 1.4142135 1.5 1.4142135
vn 0.41720554 0.80739033 0.41720545
vt 0.125 0.0
v 1.847759 1.5 0.76536685
vn 0.54510534 0.80739033 0.22578998
vt 0.1875 0.0
v 2.0 1.5 -8.742278e-08
vn 0.59001774 0.80739033 -4.6523304e-08
vt 0.25 0.0
v 1.847759 1.5 -0.76536703
vn 0.5451053 0.80739033 -0.22579005
vt 0.3125 0.0
v 1.4142135 1.5 -1.4142135
vn 0.41720542 0.80739033 -0.41720554
vt 0.375 0.0
v 0.76536655 1.5 -1.8477592
vn 0.22578995 0.80739045 -0.54510516
vt 0.4375 0.0
v -1.7484555e-07 1.5 -2.0
vn 5.1692566e-09 0.8073904 -0.59001756
vt 0.5 0.0
v -0.76536685 1.5 -1.847759
vn -0.22579011 0.8073903 -0.5451052
vt 0.5625 0.0
v -1.4142138 1.5 -1.4142133
vn -0.41720557 0.8073903 -0.41720545
vt 0.625 0.0
v -1.8477594 1.5 -0.76536626
vn -0.5451053 0.8073904 -0.22578996
vt 0.68750006 0.0
v -2.0 1.5 2.3849761e-08
vn -0.5900177 0.80739033 2.1193952e-07
vt 0.75 0.0
v -1.8477589 1.5 0.7653672
vn -0.5451053 0.80739033 0.22579017
vt 0.8125 0.0
v -1.4142131 1.5 1.414214
vn -0.41720545 0.8073904 0.4172055
vt 0.875 0.0
v -0.76536685 1.5 1.8477591
vn -0.22578987 0.80739045 0.5451052
vt 0.9375 0.0
v 0.0 2.1666667 0.6666666
vn 0.0 0.8944272 0.44721368
vt 0.0 0.33333334
v 0.25512227 2.1666667 0.61591965
vn 0.17114125 0.8944272 0.41317153
vt 0.0625 0.33333334
v 0.4714045 2.1666667 0.4714045
vn 0.31622782 0.8944272 0.31622776
vt 0.125 0.33333334
v 0.61591965 2.1666667 0.25512227
vn 0.41317144 0.8944272 0.17114122
vt 0.1875 0.33333334
v 0.6666666 2.1666667 -2.9140924e-08
vn 0.44721362 0.8944272 2.4488263e-09
vt 0.25 0.33333334
v 0.61591965 2.1666667 -0.25512233
vn 0.4131715 0.8944272 -0.17114124
vt 0.3125 0.33333334
v 0.4714045 2.1666667 -0.4714045
vn 0.3162277 0.8944272 -0.31622785
vt 0.375 0.33333334
v 0.25512215 2.1666667 -0.6159197
vn 0.17114125 0.8944272 -0.41317153
vt 0.4375 0.33333334
v -5.828185e-08 2.1666667 -0.6666666
vn -1.22441355e-08 0.8944272 -0.4472136
vt 0.5 0.33333334
v -0.25512227 2.1666667 -0.61591965
vn -0.17114131 0.8944272 -0.41317144
vt 0.5625 0.33333334
v -0.47140455 2.1666667 -0.4714044
vn -0.31622788 0.8944272 -0.31622773
vt 0.625 0.33333334
v -0.61591977 2.1666667 -0.25512207
vn -0.41317147 0.8944272 -0.17114122
vt 0.68750006 0.33333334
v -0.6666666 2.1666667 7.94992e-09
vn -0.44721362 0.8944271 1.444808e-07
vt 0.75 0.33333334
v -0.6159196 2.1666667 0.2551224
vn -0.42845422 0.9027853 0.03749271
vt 0.8125 0.33333334
v -0.4714043 2.1666667 0.47140464
vn -0.19860093 0.90278524 0.38149223
vt 0.875 0.33333334
v -0.25512227 2.1666667 0.61591965
vn -0.17114118 0.8944272 0.41317156
vt 0.9375 0.33333334
v 0.0 1.8333333 1.3333333
vn 0.0 0.8944272 0.44721353
vt 0.0 0.6666667
v 0.51024455 1.8333333 1.2318393
vn 0.17114124 0.8944272 0.41317144
vt 0.0625 0.6666667
v 0.942809 1.8333333 0.942809
vn 0.3162278 0.8944272 0.31622773
vt 0.125 0.6666667
v 1.2318393 1.8333333 0.51024455
vn 0.4131715 0.8944272 0.17114124
vt 0.1875 0.6666667
v 1.3333333 1.8333333 -5.828185e-08
vn 0.4472136 0.8944272 -1.9590608e-08
vt 0.25 0.6666667
v 1.2318393 1.8333333 -0.51024467
vn 0.41317144 0.8944272 -0.17114125
vt 0.3125 0.6666667
v 0.942809 1.8333333 -0.942809
vn 0.31622764 0.8944272 -0.31622776
vt 0.375 0.6666667
v 0.5102443 1.8333333 -1.2318394
vn 0.17114119 0.8944272 -0.4131714
vt 0.4375 0.6666667
v -1.165637e-07 1.8333333 -1.3333333
vn 4.8976534e-09 0.8944272 -0.4472135
vt 0.5 0.6666667
v -0.51024455 1.8333333 -1.2318393
vn -0.17114131 0.89442724 -0.41317144
vt 0.5625 0.6666667
v -0.9428091 1.8333333 -0.9428088
vn -0.31622785 0.8944272 -0.3162277
vt 0.625 0.6666667
v -1.2318395 1.8333333 -0.51024413
vn -0.41317144 0.8944272 -0.17114119
vt 0.68750006 0.6666667
v -1.3333333 1.8333333 1.589984e-08
vn -0.4472136 0.8944272 1.542761e-07
vt 0.75 0.6666667
v -1.2318392 1.8333333 0.5102448
vn -0.44534576 0.8881013 0.11376897
vt 0.8125 0.6666667
v -0.9428086 1.8333333 0.9428093
vn -0.27553508 0.8881012 0.36790836
vt 0.875 0.6666667
v -0.51024455 1.8333333 1.2318393
vn -0.17114113 0.8944272 0.4131714
vt 0.9375 0.6666667
v 0.0 2.5 0.0
vn -1.3689355e-08 1.0 1.3689355e-08
vt 0.0 0.0
v -0.6949937 1.5 1.6778632
vn -0.37954792 -0.1277475 0.91630995
vt 0.9375 0.0
v -1.2841804 1.5 1.2841814
vn -0.70131326 -0.12774752 0.70131326
vt 0.875 0.0
v -1.677863 1.5 0.694994
vn -0.9163099 -0.12774752 0.37954822
vt 0.8125 0.0
v -1.8161061 1.5 -9.677258e-09
vn -0.9918067 -0.1277475 3.3315246e-07
vt 0.75 0.0
v -1.6778635 1.5 -0.6949931
vn -0.91630995 -0.12774752 -0.37954795
vt 0.68750006 0.0
v -1.2841811 1.5 -1.2841806
vn -0.7013133 -0.12774754 -0.7013132
vt 0.625 0.0
v -0.6949937 1.5 -1.6778631
vn -0.3795482 -0.12774752 -0.91630983
vt 0.5625 0.0
v -1.4550942e-07 1.5 -1.8161061
vn -2.268272e-07 -0.12774752 -0.9918067
vt 0.5 0.0
v 0.6949934 1.5 -1.6778634
vn 0.37954807 -0.12774754 -0.9163099
vt 0.4375 0.0
v 1.2841809 1.5 -1.2841809
vn 0.7013132 -0.12774752 -0.7013133
vt 0.375 0.0
v 1.6778631 1.5 -0.69499385
vn 0.84099317 -0.16540185 -0.5151434
vt 0.3125 0.0
v 1.8161061 1.5 -8.742278e-08
vn 0.9750391 -0.16276826 0.15101416
vt 0.25 0.0
v 1.6778631 1.5 0.6949937
vn 0.91630995 -0.1277475 0.37954804
vt 0.1875 0.0
v 1.2841809 1.5 1.2841809
vn 0.7831221 -0.20609374 0.5867241
vt 0.125 0.0
v 0.69499373 1.5 1.6778631
vn 0.24171045 -0.20647433 0.94812673
vt 0.0625 0.0
v -1.3969592e-08 1.5 1.8161061
vn 1.2050194e-07 -0.12774754 0.9918068
vt 0.0 0.0
v -1.3969592e-08 0.0 1.8161061
vn 2.4569173e-08 -0.97934014 0.20221981
vt 0.0 0.0
v -0.6949937 0.0 1.6778632
vn -0.07738611 -0.97934014 0.18682669
vt 0.9375 0.0
v -1.2841804 0.0 1.2841814
vn -0.14299095 -0.97934014 0.14299099
vt 0.875 0.0
v -1.677863 0.0 0.694994
vn -0.18682678 -0.97934014 0.077386275
vt 0.8125 0.0
v -1.8161061 0.0 8.031549e-09
vn -0.20221972 -0.97934014 1.1417439e-07
vt 0.75 0.0
v -1.6778635 0.0 -0.6949931
vn -0.18682668 -0.97934014 -0.07738609
vt 0.68750006 0.0
v -1.2841811 0.0 -1.2841806
vn -0.14299104 -0.97934014 -0.14299096
vt 0.625 0.0
v -0.6949937 0.0 -1.6778631
vn -0.07738621 -0.97934014 -0.18682668
vt 0.5625 0.0
v -1.4550942e-07 0.0 -1.8161061
vn -4.6247855e-08 -0.97934014 -0.20221967
vt 0.5 0.0
v 0.6949934 0.0 -1.6778634
vn 0.07738617 -0.97934014 -0.18682666
vt 0.4375 0.0
v 1.2841809 0.0 -1.2841809
vn 0.1423673 -0.9791059 -0.14520046
vt 0.375 0.0
v 1.717976 -0.008082151 -0.69499385
vn 0.108647354 -0.9911991 -0.07563142
vt 0.3125 0.0
v 1.8556929 0.00396657 -5.9604645e-08
vn 0.1300376 -0.99110293 0.028377993
vt 0.25 0.0
v 1.6778631 0.0 0.6949937
vn 0.18572769 -0.9793264 0.08015614
vt 0.1875 0.0
v 1.2841809 0.0 1.2841809
vn 0.11558372 -0.988274 0.09977414
vt 0.125 0.0
v 0.69499373 0.0 1.6778631
vn 0.047266074 -0.9882842 0.14512144
vt 0.0625 0.0
v 1.7977566 1.3700964 -0.37344944
vn 0.9736397 0.11792412 -0.19524263
vt 0.25 0.0
v 1.9047378 0.0033925772 -0.009708652
vn 0.99749815 -0.045028836 -0.054497432
vt 0.25 0.0
v 1.767021 -0.008656263 -0.70470244
vn 0.94321835 -0.049777795 -0.32842273
vt 0.3125 0.0
v 1.8468015 1.3695225 -0.38315803
vn 0.9788852 0.06120462 -0.19503264
vt 0.25 0.0
v 0.81069344 0.6699002 1.6264906
vn 0.4833029 -0.03296817 0.8748322
vt 0.0625 0.0
v 1.1893065 0.6699002 1.3735094
vn 0.62289196 -0.03276895 0.7816212
vt 0.125 0.0
v 1.1788938 1.3733724 1.3545314
vn 0.60957986 0.027346203 0.7922529
vt 0.125 0.0
v 0.80028075 1.3733724 1.6075126
vn 0.4979829 0.027668059 0.86674535
vt 0.0625 0.0
v 1.0 1.2712158 1.5
vn 0.54700416 0.17492262 0.8186504
vt 0.0625 0.0
v 0.83847195 0.6699002 1.6680641
vn 0.3630952 -0.08094897 0.92822903
vt 0.0625 0.0
v 1.217085 0.6699002 1.4150829
vn 0.7186215 -0.080948934 0.6906738
vt 0.125 0.0
v 1.0277785 1.2712158 1.5415735
vn 0.54804355 0.1640494 0.8202049
vt 0.0625 0.0
v -1.07191 2.0544856 0.71622753
vn -0.2750849 0.9436861 0.18380603
vt 0.8125 0.33333334
v -1.2077656 1.8349682 0.5813804
vn -0.72737074 -0.1350372 0.6728274
vt 0.8125 0.6666667
v -0.9993168 1.8349682 0.89334583
vn -0.8999644 -0.13503723 0.41452262
vt 0.875 0.6666667
v -1.0743507 2.0194678 0.7178584
vn -0.83137214 -0.015324903 0.5555048
vt 0.8125 0.33333334
v -1.0581334 2.017833 0.7070223
vn -0.83129025 -0.020773927 0.5554504
vt 0.8125 0.33333334
v -1.1915482 1.8333333 0.57054436
vn -0.7361397 0.28467685 0.6140499
vt 0.8125 0.6666667
v -0.98309946 1.8333333 0.88250977
vn -0.8490166 0.284677 0.44511768
vt 0.875 0.6666667
vn -0.00023966073 -0.99999994 0.00023539504
vn 0.08860639 0.8909092 0.44545463
vn 0.25232983 0.8909092 0.3776381
vn 0.37763816 0.8909092 0.25232983
vn 0.44545454 0.89090914 0.08860636
vn 0.44545454 0.89090914 -0.08860636
vn 0.37763813 0.8909092 -0.25232986
vn 0.2523298 0.89090914 -0.37763816
vn 0.08860633 0.8909092 -0.44545454
vn -0.0886064 0.8909092 -0.44545463
vn -0.25232986 0.89090914 -0.37763807
vn -0.37763816 0.89090914 -0.25232968
vn -0.44545463 0.8909092 -0.088606305
vn -0.44545457 0.89090914 0.088606484
vn -0.37763816 0.89090914 0.2523299
vn -0.25232974 0.8909092 0.3776381
vn -0.08860639 0.8909092 0.44545463
vn 0.08860633 0.8909091 0.4454546
vn 0.25232986 0.89090914 0.37763816
vn 0.37763816 0.89090914 0.25232977
vn 0.4454546 0.8909092 0.088606425
vn 0.44545463 0.89090914 -0.08860642
vn 0.3776381 0.8909092 -0.25232983
vn 0.25232974 0.8909091 -0.3776382
vn 0.08860635 0.89090914 -0.44545463
vn -0.08860635 0.8909092 -0.4454546
vn -0.2523299 0.8909091 -0.3776381
vn -0.3776382 0.8909091 -0.25232974
vn -0.44545463 0.8909092 -0.088606305
vn -0.4454546 0.8909091 0.08860649
vn -0.5558832 0.7451528 -0.3684307
vn -0.2523298 0.89090914 0.3776382
vn -0.08860633 0.8909091 0.4454546
vn 0.0886064 0.89090925 0.4454545
vn 0.25232974 0.89090914 0.37763804
vn 0.37763816 0.89090914 0.2523297
vn 0.44545454 0.8909091 0.088606425
vn 0.4454545 0.89090914 -0.088606484
vn 0.37763816 0.8909092 -0.25232977
vn 0.25232962 0.89090925 -0.3776381
vn 0.08860641 0.8909092 -0.44545448
vn -0.08860641 0.8909092 -0.44545445
vn -0.2523299 0.8909092 -0.37763816
vn -0.3776381 0.89090914 -0.25232965
vn -0.44545454 0.89090914 -0.08860632
vn -0.44545454 0.8909091 0.08860652
vn -0.37763804 0.8909092 0.2523299
vn -0.25232965 0.8909092 0.37763804
vn -0.0886064 0.89090925 0.4454545
vn 0.0 -0.99999994 0.0
vn 0.0 -1.0 0.0
vn 0.0 -1.0 0.0
vn 0.0 -1.0 0.0
vn 0.0 -1.0 0.0
vn 0.0 -1.0 0.0
vn 0.0 -0.99999994 -1.12710296e-07
vn 0.0 -0.99999994 2.2194872e-07
vn 0.0 -1.0 0.0
vn 0.0 -1.0 0.0
vn 0.0 -1.0 0.0
vn 0.0 -1.0 0.0
vn 0.0 -0.99999994 0.0
vn 0.0 -0.99999994 0.0
vn 0.0 -1.0 -5.20183e-08
vn 0.0 -1.0 0.0
vn -0.1950904 0.0 0.9807853
vn -0.5555702 0.0 0.83146966
vn -0.8314695 0.0 0.55557036
vn -0.9807852 3.0257436e-08 0.19509056
vn -0.9807853 0.0 -0.19509016
vn -0.8314697 0.0 -0.55557007
vn -0.5555702 0.0 -0.8314696
vn -0.19509064 0.0 -0.98078525
vn 0.1950902 0.0 -0.98078525
vn 0.5555703 0.0 -0.8314696
vn 0.8183641 0.010912899 -0.57459646
vn 0.9809004 -0.011480433 -0.19417185
vn 0.97501874 0.012882979 0.22174871
vn 0.8314696 0.0 0.5555701
vn 0.485929 0.030756455 0.873457
vn 0.19509058 0.0 0.98078525
vn 0.9399561 0.025001543 -0.3403783
vn 0.90352076 0.38903776 -0.17972168
vn 0.9979545 0.026407182 -0.058220368
vn -0.007958891 -0.99978954 0.018909974
vn -0.18618928 0.23344469 -0.9543779
vn 0.19016784 0.26637235 0.9449243
vn 0.55528253 -0.032174107 0.8310392
vn 0.639457 0.009643039 0.76876646
vn 0.5555702 -5.560518e-07 0.8314697
vn 0.46381184 0.009821651 0.8858792
vn 0.55557036 1.08842485e-07 0.83146954
vn 0.6201269 0.030327288 0.7839151
vn 0.5435909 0.20654199 0.8135412
vn 0.0 -1.0 -8.1810754e-07
vn 0.7775968 0.35409963 -0.5195735
vn -0.7775969 0.35409954 0.5195734
vn -0.8168133 0.1869301 0.5457775
vn 0.12765811 0.7451533 0.6545609
vn -0.14457977 0.98476607 0.09660519
vn -0.06945196 -0.9965053 0.04640682
vn -0.6973233 0.29607418 0.65274817
vn -0.86991477 0.29607347 0.39444733
vn 0.34277657 -0.7061628 0.6195468
vn 0.06945451 0.9965051 -0.046408255
vn -0.44120735 -0.7061626 -0.55377835
usemtl 260CBFE5-A7B7-4E18-A030-9DF2CE5E41EE
g Submesh0
f 24/24/24 40/40/40 41/41/41 25/25/25 
f 77/77/77 60/60/60 82/82/82 
f 68/68/68 67/67/67 50/50/50 51/51/51 
f 49/49/49 25/25/25 26/26/26 
f 60/60/60 61/61/61 82/82/82 
f 62/62/62 61/61/61 5/5/5 4/4/4 
f 3/3/3 4/4/4 36/36/36 35/35/35 
f 57/57/57 56/56/56 10/10/10 9/9/9 
f 99/99/99 98/98/98 97/97/97 95/95/95 
f 49/49/49 31/31/31 32/32/32 
f 23/23/23 39/39/39 40/40/40 24/24/24 
f 17/17/17 33/33/33 34/34/34 18/18/18 
f 20/20/20 36/36/36 37/37/37 21/21/21 
f 53/53/53 52/52/52 14/14/14 13/13/13 
f 49/49/49 20/20/20 21/21/21 
f 49/49/49 18/18/18 19/19/19 
f 64/64/64 63/63/63 3/3/3 2/2/2 
f 73/73/73 72/72/72 55/55/55 56/56/56 
f 100/100/100 99/99/99 95/95/95 96/96/96 
f 2/2/2 3/3/3 35/35/35 34/34/34 
f 7/7/7 8/8/8 40/40/40 39/39/39 
f 96/96/96 95/95/95 46/46/46 47/47/47 
f 87/87/87 86/86/86 81/81/81 80/80/80 
f 77/77/77 76/76/76 59/59/59 60/60/60 
f 89/89/89 88/88/88 63/63/63 64/64/64 
f 12/12/12 13/13/13 45/45/45 44/44/44 
f 19/19/19 35/35/35 36/36/36 20/20/20 
f 49/49/49 30/30/30 31/31/31 
f 49/49/49 29/29/29 30/30/30 
f 74/74/74 73/73/73 56/56/56 57/57/57 
f 18/18/18 34/34/34 35/35/35 19/19/19 
f 72/72/72 71/71/71 54/54/54 55/55/55 
f 84/84/84 83/83/83 78/78/78 77/77/77 
f 71/71/71 70/70/70 53/53/53 54/54/54 
f 81/81/81 66/66/66 67/67/67 68/68/68 69/69/69 70/70/70 71/71/71 72/72/72 73/73/73 74/74/74 75/75/75 76/76/76 77/77/77 78/78/78 79/79/79 80/80/80 
f 56/56/56 55/55/55 11/11/11 10/10/10 
f 65/65/65 64/64/64 2/2/2 1/1/1 
f 61/61/61 78/78/78 82/82/82 
f 67/67/67 66/66/66 65/65/65 50/50/50 
f 25/25/25 41/41/41 42/42/42 26/26/26 
f 76/76/76 75/75/75 58/58/58 59/59/59 
f 49/49/49 21/21/21 22/22/22 
f 22/22/22 38/38/38 39/39/39 23/23/23 
f 14/14/14 15/15/15 47/47/47 46/46/46 
f 15/15/15 16/16/16 48/48/48 47/47/47 
f 85/85/85 84/84/84 77/77/77 82/82/82 
f 86/86/86 89/89/89 64/64/64 81/81/81 
f 49/49/49 26/26/26 27/27/27 
f 70/70/70 69/69/69 52/52/52 53/53/53 
f 6/6/6 7/7/7 39/39/39 38/38/38 
f 88/88/88 87/87/87 80/80/80 63/63/63 
f 16/16/16 1/1/1 33/33/33 48/48/48 
f 49/49/49 19/19/19 20/20/20 
f 30/30/30 46/46/46 94/94/94 
f 4/4/4 5/5/5 37/37/37 36/36/36 
f 47/47/47 31/31/31 94/94/94 
f 5/5/5 6/6/6 38/38/38 37/37/37 
f 31/31/31 47/47/47 48/48/48 32/32/32 
f 95/95/95 97/97/97 94/94/94 46/46/46 
f 11/11/11 12/12/12 44/44/44 43/43/43 
f 58/58/58 57/57/57 9/9/9 8/8/8 
f 88/88/88 89/89/89 90/90/90 
f 49/49/49 32/32/32 17/17/17 
f 66/66/66 81/81/81 64/64/64 65/65/65 
f 31/31/31 30/30/30 94/94/94 
f 29/29/29 45/45/45 46/46/46 30/30/30 
f 100/100/100 98/98/98 99/99/99 
f 28/28/28 44/44/44 45/45/45 29/29/29 
f 91/91/91 93/93/93 90/90/90 86/86/86 
f 21/21/21 37/37/37 38/38/38 22/22/22 
f 63/63/63 62/62/62 4/4/4 3/3/3 
f 97/97/97 96/96/96 47/47/47 94/94/94 
f 49/49/49 22/22/22 23/23/23 
f 69/69/69 68/68/68 51/51/51 52/52/52 
f 51/51/51 50/50/50 16/16/16 15/15/15 
f 32/32/32 48/48/48 33/33/33 17/17/17 
f 49/49/49 17/17/17 18/18/18 
f 52/52/52 51/51/51 15/15/15 14/14/14 
f 54/54/54 53/53/53 13/13/13 12/12/12 
f 55/55/55 54/54/54 12/12/12 11/11/11 
f 75/75/75 74/74/74 57/57/57 58/58/58 
f 9/9/9 10/10/10 42/42/42 41/41/41 
f 8/8/8 9/9/9 41/41/41 40/40/40 
f 49/49/49 24/24/24 25/25/25 
f 59/59/59 58/58/58 8/8/8 7/7/7 
f 10/10/10 11/11/11 43/43/43 42/42/42 
f 85/85/85 83/83/83 84/84/84 
f 98/98/98 100/100/100 96/96/96 97/97/97 
f 80/80/80 79/79/79 62/62/62 63/63/63 
f 49/49/49 28/28/28 29/29/29 
f 26/26/26 42/42/42 43/43/43 27/27/27 
f 49/49/49 27/27/27 28/28/28 
f 87/87/87 88/88/88 90/90/90 
f 50/50/50 65/65/65 1/1/1 16/16/16 
f 89/89/89 86/86/86 90/90/90 
f 61/61/61 60/60/60 6/6/6 5/5/5 
f 27/27/27 43/43/43 44/44/44 28/28/28 
f 93/93/93 91/91/91 92/92/92 
f 49/49/49 23/23/23 24/24/24 
f 1/1/1 2/2/2 34/34/34 33/33/33 
f 93/93/93 92/92/92 87/87/87 90/90/90 
f 92/92/92 91/91/91 86/86/86 87/87/87 
f 79/79/79 78/78/78 61/61/61 62/62/62 
f 83/83/83 85/85/85 82/82/82 78/78/78 
f 60/60/60 59/59/59 7/7/7 6/6/6 
f 13/13/13 14/14/14 46/46/46 45/45/45 
